HIERARCHY
ROOT WRIST
{
	OFFSET 0.000000 0.000000 0.000000
	CHANNELS 6 Xposition Yposition Zposition Yrotation Xrotation Zrotation
	JOINT THUMB_CMC_FE
	{
		OFFSET 0.225143 0.117753 -0.062308
		CHANNELS 3 Yrotation Xrotation Zrotation
		JOINT THUMB_CMC_AA
		{
			OFFSET 0.212856 -0.150507 0.098851
			CHANNELS 3 Yrotation Xrotation Zrotation
			JOINT THUMB_MCP_FE
			{
				OFFSET -0.322503 -0.167445 -0.031436
				CHANNELS 3 Yrotation Xrotation Zrotation
				JOINT THUMB_IP_FE
				{
					OFFSET 0.295233 -0.236404 0.025845
					CHANNELS 3 Yrotation Xrotation Zrotation
					End Site
					{
						OFFSET 0.000000 0.000000 0.000000
					}
				}
			}
		}
	}
	JOINT INDEX_MCP
	{
		OFFSET 1.076913 0.264198 -0.014768
		CHANNELS 3 Yrotation Xrotation Zrotation
		JOINT INDEX_PIP_FE
		{
			OFFSET 0.425053 0.013289 0.013619
			CHANNELS 3 Yrotation Xrotation Zrotation
			JOINT INDEX_DIP_FE
			{
				OFFSET 0.271505 -0.024898 0.000550
				CHANNELS 3 Yrotation Xrotation Zrotation
				End Site
				{
					OFFSET 0.000000 0.000000 0.000000
				}
			}
		}
	}
	JOINT MIDDLE_MCP
	{
		OFFSET 1.072991 0.019362 0.038780
		CHANNELS 3 Yrotation Xrotation Zrotation
		JOINT MIDDLE_PIP_FE
		{
			OFFSET 0.480704 0.002618 0.028696
			CHANNELS 3 Yrotation Xrotation Zrotation
			JOINT MIDDLE_DIP_FE
			{
				OFFSET 0.307486 -0.031129 -0.000643
				CHANNELS 3 Yrotation Xrotation Zrotation
				End Site
				{
					OFFSET 0.000000 0.000000 0.000000
				}
			}
		}
	}
	JOINT RING_MCP
	{
		OFFSET 0.994992 -0.195930 -0.005938
		CHANNELS 3 Yrotation Xrotation Zrotation
		JOINT RING_PIP_FE
		{
			OFFSET 0.436995 0.003792 0.019994
			CHANNELS 3 Yrotation Xrotation Zrotation
			JOINT RING_DIP_FE
			{
				OFFSET 0.295558 -0.038341 -0.006642
				CHANNELS 3 Yrotation Xrotation Zrotation
				End Site
				{
					OFFSET 0.000000 0.000000 0.000000
				}
			}
		}
	}
	JOINT PINKY_MCP
	{
		OFFSET 0.873858 -0.393246 -0.086282
		CHANNELS 3 Yrotation Xrotation Zrotation
		JOINT PINKY_PIP_FE
		{
			OFFSET 0.343972 -0.016492 0.013445
			CHANNELS 3 Yrotation Xrotation Zrotation
			JOINT PINKY_DIP_FE
			{
				OFFSET 0.224713 -0.036309 -0.010265
				CHANNELS 3 Yrotation Xrotation Zrotation
				End Site
				{
					OFFSET 0.000000 0.000000 0.000000
				}
			}
		}
	}
}
MOTION
Frames: 10
Frame Time: 0.008333334
1.761357 3.465388 5.092047 59.280490 1.499757 -6.243439 61.461200 4.834470 56.605820 119.352900 -30.976930 23.088420 -112.863900 -65.843230 -31.979890 4.562089 -8.459839 22.346550 -125.860100 1.843172 174.637000 -41.978090 -86.125670 50.054180 -2.052612 1.705001 -10.851780 -131.077000 -4.755707 179.207600 -39.241240 -88.411320 46.834620 -6.002502 4.395453 5.204809 -151.885700 -11.481350 -176.544600 -31.479490 -85.617860 33.420570 0.199290 0.562915 0.920225 -175.186200 -14.725280 -166.777000 -48.977330 -83.530580 19.424780 5.539801 0.809159 3.392803 
1.734119 3.465058 5.104000 59.256530 1.431174 -6.134186 61.461170 4.834461 56.539230 119.352900 -30.976930 22.806790 -112.864000 -65.843260 -32.053340 4.562079 -8.459839 22.556870 -126.391800 1.870267 174.412300 -41.978180 -86.125670 50.054250 -2.052612 1.704998 -10.037810 -132.151200 -4.696442 179.148000 -39.240110 -88.411190 46.833500 -6.002502 4.395432 5.204803 -152.463300 -11.384310 -176.896700 -31.479520 -85.617740 34.442640 0.199317 0.562931 1.287904 -175.164800 -14.731600 -166.964100 -48.977510 -83.530550 20.868940 5.539820 0.809179 3.392802 
1.709642 3.465605 5.115222 59.290200 1.407159 -5.940796 61.461180 4.834466 56.342630 119.352900 -30.976930 22.657580 -112.864000 -65.843230 -32.059880 4.562109 -8.459839 22.528610 -126.689200 1.885363 174.689500 -41.978060 -86.125610 50.054140 -2.052643 1.705004 -9.768219 -133.119300 -4.641632 179.727300 -39.240690 -88.411190 46.834090 -6.002502 4.395431 5.204805 -153.582200 -11.192930 -176.346300 -31.479640 -85.617740 33.372040 0.199302 0.562925 2.068539 -175.562000 -14.613800 -166.738500 -48.977510 -83.530580 21.780960 5.539814 0.809185 3.392800 
1.684055 3.467825 5.126698 59.359850 1.544113 -5.965607 61.461180 4.834470 56.108540 119.352900 -30.976930 22.453590 -112.863900 -65.843260 -31.855740 4.562097 -8.459839 22.354710 -126.954000 1.898742 174.660400 -41.978030 -86.125670 50.054120 -2.052643 1.705000 -8.683685 -134.306300 -4.572601 -179.960100 -39.240540 -88.411190 46.833930 -6.002502 4.395449 5.204813 -154.784600 -10.982390 -176.185300 -31.479550 -85.617800 33.494530 0.199312 0.562935 2.377110 -176.509400 -14.329590 -166.570800 -48.977540 -83.530580 22.717240 5.539834 0.809173 3.392803 
1.659110 3.467299 5.137216 59.426510 1.467192 -5.785614 61.461190 4.834451 55.942190 119.352900 -30.976930 22.381400 -112.863900 -65.843260 -31.582700 4.562110 -8.459839 21.641470 -127.342700 1.918316 174.722000 -41.978030 -86.125670 50.054100 -2.052643 1.704978 -8.901001 -135.619600 -4.493927 -179.399400 -39.240260 -88.411190 46.833650 -6.002533 4.395439 5.204811 -156.080000 -10.749910 -175.727800 -31.479490 -85.617740 33.145400 0.199306 0.562922 3.020873 -177.524600 -14.020110 -166.269700 -48.977260 -83.530610 23.533030 5.539804 0.809170 3.392798 
1.634280 3.466565 5.147337 59.489800 1.164883 -5.684174 61.461200 4.834466 55.970070 119.352900 -30.976900 22.316190 -112.863900 -65.843200 -31.233830 4.562086 -8.459869 21.291490 -127.647300 1.933611 174.446100 -41.978060 -86.125670 50.054150 -2.052643 1.704996 -8.429993 -137.045900 -4.405792 -179.223200 -39.240330 -88.411190 46.833690 -6.002502 4.395442 5.204806 -157.337200 -10.518800 -175.567700 -31.479280 -85.617800 32.061040 0.199294 0.562921 4.647094 -178.143400 -13.828980 -166.199800 -48.977480 -83.530610 24.064440 5.539808 0.809172 3.392803 
1.610198 3.466877 5.157109 59.592160 1.159517 -5.561707 61.461190 4.834466 55.751080 119.352900 -30.976930 22.298730 -112.863900 -65.843200 -31.013370 4.562088 -8.459839 20.685030 -127.933900 1.947934 174.764000 -41.978090 -86.125610 50.054180 -2.052612 1.704998 -8.715942 -138.588500 -4.307434 -178.588600 -39.240390 -88.411190 46.833720 -6.002533 4.395440 5.204806 -159.166500 -10.173070 -175.198500 -31.479520 -85.617680 30.517690 0.199301 0.562929 4.968521 -179.167300 -13.508610 -165.941500 -48.977540 -83.530610 24.983550 5.539822 0.809176 3.392806 
1.586611 3.465562 5.166713 59.739450 1.015059 -5.427155 61.461190 4.834468 55.728440 119.352900 -30.976930 22.245270 -112.863900 -65.843230 -30.866030 4.562085 -8.459839 20.241510 -128.402100 1.971234 174.643000 -41.978000 -86.125700 50.054110 -2.052643 1.704992 -7.891907 -140.050800 -4.211273 -178.163100 -39.240390 -88.411190 46.833740 -6.002533 4.395442 5.204803 -160.212800 -9.970398 -175.119200 -31.479400 -85.617800 30.578250 0.199301 0.562924 4.968519 -179.897300 -13.277130 -165.956300 -48.977480 -83.530610 26.149570 5.539806 0.809171 3.392799 
1.562774 3.462583 5.174995 59.854830 0.969743 -5.143402 61.461170 4.834466 55.564220 119.352900 -30.976930 22.123730 -112.864000 -65.843260 -30.916410 4.562094 -8.459839 20.131850 -128.508600 1.976515 175.319900 -41.977970 -86.125670 50.054050 -2.052612 1.704998 -8.289001 -141.571400 -4.108337 -177.910800 -39.240480 -88.411320 46.833850 -6.002502 4.395437 5.204811 -161.767600 -9.662750 -174.702300 -31.479460 -85.617740 29.033790 0.199295 0.562929 4.968526 179.096800 -12.954010 -165.759500 -48.977570 -83.530580 26.513030 5.539809 0.809181 3.392804 
1.541968 3.461977 5.184571 60.072260 0.575891 -5.024536 61.461170 4.834466 55.597430 119.352900 -30.976900 22.120440 -112.863900 -65.843230 -30.918300 4.562078 -8.459869 19.816330 -128.635500 1.982798 175.499200 -41.978270 -86.125610 50.054350 -2.052612 1.705012 -8.560394 -142.365700 -4.053436 -178.050400 -39.240050 -88.411320 46.833440 -6.002533 4.395444 5.204813 -162.220600 -9.571686 -174.646000 -31.479490 -85.617740 29.011580 0.199308 0.562938 4.968527 179.079500 -12.948390 -165.849700 -48.977510 -83.530580 27.733380 5.539831 0.809172 3.392800 
